%TF.GenerationSoftware,KiCad,Pcbnew,5.1.0-060a0da~80~ubuntu16.04.1*%
%TF.CreationDate,2019-04-28T22:06:59+02:00*%
%TF.ProjectId,Motorteiber002,4d6f746f-7274-4656-9962-65723030322e,rev?*%
%TF.SameCoordinates,Original*%
%TF.FileFunction,Plated,1,2,PTH,Drill*%
%TF.FilePolarity,Positive*%
%FSLAX46Y46*%
G04 Gerber Fmt 4.6, Leading zero omitted, Abs format (unit mm)*
G04 Created by KiCad (PCBNEW 5.1.0-060a0da~80~ubuntu16.04.1) date 2019-04-28 22:06:59*
%MOMM*%
%LPD*%
G04 APERTURE LIST*
%TA.AperFunction,ViaDrill*%
%ADD10C,0.400000*%
%TD*%
%TA.AperFunction,ViaDrill*%
%ADD11C,0.800000*%
%TD*%
%TA.AperFunction,ComponentDrill*%
%ADD12C,0.800000*%
%TD*%
%TA.AperFunction,ComponentDrill*%
%ADD13C,1.000000*%
%TD*%
%TA.AperFunction,ComponentDrill*%
%ADD14C,1.200000*%
%TD*%
G04 APERTURE END LIST*
D10*
X45169987Y-10199999D03*
X45169987Y-40200000D03*
X45169987Y-70199999D03*
X45169987Y-100200000D03*
X45169987Y-130200000D03*
X45169987Y-160200000D03*
X45169987Y-190200000D03*
X45169987Y-220200000D03*
X46170000Y-10249999D03*
X46170000Y-40250000D03*
X46170000Y-70249999D03*
X46170000Y-100250000D03*
X46170000Y-130250000D03*
X46170000Y-160250000D03*
X46170000Y-190250000D03*
X46170000Y-220250000D03*
X46570000Y-11399999D03*
X46570000Y-41399999D03*
X46570000Y-71399999D03*
X46570000Y-101400000D03*
X46570000Y-131400000D03*
X46570000Y-161400000D03*
X46570000Y-191400000D03*
X46570000Y-221400000D03*
X53262283Y-13906794D03*
X53262283Y-43906794D03*
X53262283Y-73906794D03*
X53262283Y-103906795D03*
X53262283Y-133906795D03*
X53262283Y-163906795D03*
X53262283Y-193906795D03*
X53262283Y-223906795D03*
X54278338Y-13426212D03*
X54278338Y-43426212D03*
X54278338Y-73426212D03*
X54278338Y-103426213D03*
X54278338Y-133426213D03*
X54278338Y-163426213D03*
X54278338Y-193426213D03*
X54278338Y-223426213D03*
X54304004Y-27641315D03*
X54304004Y-57641315D03*
X54304004Y-87641315D03*
X54304004Y-117641316D03*
X54304004Y-147641316D03*
X54304004Y-177641316D03*
X54304004Y-207641316D03*
X54304004Y-237641316D03*
X54585919Y-14663789D03*
X54585919Y-44663789D03*
X54585919Y-74663789D03*
X54585919Y-104663790D03*
X54585919Y-134663790D03*
X54585919Y-164663790D03*
X54585919Y-194663790D03*
X54585919Y-224663790D03*
X55920000Y-28999999D03*
X55920000Y-58999999D03*
X55920000Y-88999999D03*
X55920000Y-119000000D03*
X55920000Y-149000000D03*
X55920000Y-179000000D03*
X55920000Y-209000000D03*
X55920000Y-239000000D03*
X78374968Y-282476835D03*
X78824979Y-284471862D03*
X79274990Y-285982102D03*
X83500000Y-277000000D03*
X83500000Y-278000000D03*
X83500000Y-279000000D03*
X83500000Y-280000000D03*
X83883687Y-275858149D03*
X84839950Y-277001681D03*
X84960341Y-278451693D03*
X85006581Y-279901704D03*
X89500000Y-293000000D03*
X91012119Y-292513201D03*
X92125010Y-292000000D03*
X94272350Y-64842666D03*
X94372984Y-66294175D03*
X94500000Y-291500000D03*
X94603691Y-88624234D03*
X94760327Y-87174223D03*
X95000000Y-63500000D03*
X95072073Y-85589656D03*
X95311907Y-65950011D03*
X95500000Y-34500000D03*
X95500000Y-62500000D03*
X95500000Y-64500000D03*
X95500000Y-81500000D03*
X95568438Y-67400021D03*
X95637020Y-37400024D03*
X95665264Y-87620138D03*
X95720840Y-35950012D03*
X95886369Y-86170127D03*
X95913399Y-38850036D03*
X96000000Y-4725010D03*
X96000000Y-80500000D03*
X96000000Y-291000000D03*
X96500000Y-35000000D03*
X96537821Y-36526697D03*
X96675064Y-6097060D03*
X96719122Y-37976708D03*
X97017898Y-4225010D03*
X98149967Y-55342709D03*
X98149967Y-67075043D03*
X98149967Y-88149967D03*
X98284048Y-25684481D03*
X98284048Y-37325011D03*
X98300044Y-82225010D03*
X98500000Y-266500000D03*
X98675013Y-68274999D03*
X98800045Y-80774990D03*
X98816900Y-24683100D03*
X98816900Y-38183100D03*
X98816900Y-54448367D03*
X98874968Y-88874968D03*
X99073120Y-28175553D03*
X99180745Y-5570191D03*
X99274999Y-35275022D03*
X99500000Y-268000000D03*
X99524943Y-57345965D03*
X99649967Y-85225001D03*
X99667394Y-64668576D03*
X99924965Y-27075035D03*
X100118781Y-35811731D03*
X100225010Y-266500000D03*
X100237284Y-56467735D03*
X100312328Y-86812328D03*
X100387459Y-65362500D03*
X100424957Y-84075043D03*
X100500000Y-3500000D03*
X100500000Y-55500000D03*
X100634081Y-26328217D03*
X100675012Y-37324988D03*
X100902199Y-66219860D03*
X101000000Y-4500000D03*
X101000000Y-268000000D03*
X101049989Y-83049989D03*
X101049989Y-87549989D03*
X101293794Y-30293794D03*
X101293794Y-34206206D03*
X101351368Y-29210900D03*
X101500000Y-81073002D03*
X101512394Y-7537714D03*
X101762339Y-86541750D03*
X101874968Y-60625032D03*
X101874968Y-63874968D03*
X102000000Y-85500000D03*
X102000000Y-266500000D03*
X102018804Y-35500000D03*
X102077087Y-58422913D03*
X102324979Y-65675021D03*
X102375156Y-79849835D03*
X102969587Y-25454808D03*
X103000000Y-7725010D03*
X103000000Y-27000000D03*
X103000000Y-28500000D03*
X103487340Y-55742725D03*
X103632308Y-26203690D03*
X103719462Y-57330556D03*
X103828108Y-27671891D03*
X103862980Y-24599976D03*
X104000000Y-29500000D03*
X104000000Y-59000000D03*
X104217809Y-54401803D03*
X104433838Y-84564101D03*
X104541396Y-81664078D03*
X104548320Y-83114090D03*
X104562384Y-86014112D03*
X104712231Y-56824978D03*
X104838852Y-58274990D03*
X105095019Y-55375800D03*
X105299334Y-84049050D03*
X105500000Y-82500000D03*
X105500000Y-85500000D03*
X107502163Y-278874990D03*
X108500000Y-279500000D03*
X144000000Y-41000000D03*
X144080000Y-11000000D03*
X144080000Y-71000000D03*
X144080000Y-101000000D03*
X144080000Y-131000000D03*
X144080000Y-161000000D03*
X144080000Y-191000000D03*
X144080000Y-221000000D03*
X145334081Y-55336210D03*
X145414081Y-25336210D03*
X145414081Y-85336210D03*
X145414081Y-115336210D03*
X145414081Y-145336210D03*
X145414081Y-175336210D03*
X145414081Y-205336210D03*
X145414081Y-235336210D03*
X145615996Y-42358684D03*
X145641662Y-56573787D03*
X145695996Y-12358684D03*
X145695996Y-72358684D03*
X145695996Y-102358684D03*
X145695996Y-132358684D03*
X145695996Y-162358684D03*
X145695996Y-192358684D03*
X145695996Y-222358684D03*
X145721662Y-26573787D03*
X145721662Y-86573787D03*
X145721662Y-116573787D03*
X145721662Y-146573787D03*
X145721662Y-176573787D03*
X145721662Y-206573787D03*
X145721662Y-236573787D03*
X146657717Y-56093205D03*
X146737717Y-26093205D03*
X146737717Y-86093205D03*
X146737717Y-116093205D03*
X146737717Y-146093205D03*
X146737717Y-176093205D03*
X146737717Y-206093205D03*
X146737717Y-236093205D03*
X153350000Y-58600000D03*
X153430000Y-28600000D03*
X153430000Y-88600000D03*
X153430000Y-118600000D03*
X153430000Y-148600000D03*
X153430000Y-178600000D03*
X153430000Y-208600000D03*
X153430000Y-238600000D03*
X153750000Y-59750000D03*
X153830000Y-29750000D03*
X153830000Y-89750000D03*
X153830000Y-119750000D03*
X153830000Y-149750000D03*
X153830000Y-179750000D03*
X153830000Y-209750000D03*
X153830000Y-239750000D03*
X154750013Y-59800000D03*
X154830013Y-29800000D03*
X154830013Y-89800000D03*
X154830013Y-119800000D03*
X154830013Y-149800000D03*
X154830013Y-179800000D03*
X154830013Y-209800000D03*
X154830013Y-239800000D03*
D11*
X41470000Y-14649999D03*
X41470000Y-44650000D03*
X41470000Y-74649999D03*
X41470000Y-104650000D03*
X41470000Y-134650000D03*
X41470000Y-164650000D03*
X41470000Y-194650000D03*
X41470000Y-224650000D03*
X42440000Y-25499999D03*
X42440000Y-55499999D03*
X42440000Y-85499999D03*
X42440000Y-115500000D03*
X42440000Y-145500000D03*
X42440000Y-175500000D03*
X42440000Y-205500000D03*
X42440000Y-235500000D03*
X44620000Y-13099999D03*
X44620000Y-43100000D03*
X44620000Y-73099999D03*
X44620000Y-103100000D03*
X44620000Y-133100000D03*
X44620000Y-163100000D03*
X44620000Y-193100000D03*
X44620000Y-223100000D03*
X45770000Y-27899999D03*
X45770000Y-57899999D03*
X45770000Y-87899999D03*
X45770000Y-117900000D03*
X45770000Y-147900000D03*
X45770000Y-177900000D03*
X45770000Y-207900000D03*
X45770000Y-237900000D03*
X56122085Y-27591029D03*
X56122085Y-57591029D03*
X56122085Y-87591029D03*
X56122085Y-117591030D03*
X56122085Y-147591030D03*
X56122085Y-177591030D03*
X56122085Y-207591030D03*
X56122085Y-237591030D03*
X59240000Y-12179999D03*
X59240000Y-42179999D03*
X59240000Y-72179999D03*
X59240000Y-102180000D03*
X59240000Y-132180000D03*
X59240000Y-162180000D03*
X59240000Y-192180000D03*
X59240000Y-222180000D03*
X60568464Y-15796928D03*
X60568464Y-45796928D03*
X60568464Y-75796928D03*
X60568464Y-105796929D03*
X60568464Y-135796929D03*
X60568464Y-165796929D03*
X60568464Y-195796929D03*
X60568464Y-225796929D03*
X60673651Y-27067727D03*
X60673651Y-57067727D03*
X60673651Y-87067727D03*
X60673651Y-117067728D03*
X60673651Y-147067728D03*
X60673651Y-177067728D03*
X60673651Y-207067728D03*
X60673651Y-237067728D03*
X139246349Y-42932272D03*
X139326349Y-12932272D03*
X139326349Y-72932272D03*
X139326349Y-102932272D03*
X139326349Y-132932272D03*
X139326349Y-162932272D03*
X139326349Y-192932272D03*
X139326349Y-222932272D03*
X139351536Y-54203071D03*
X139431536Y-24203071D03*
X139431536Y-84203071D03*
X139431536Y-114203071D03*
X139431536Y-144203071D03*
X139431536Y-174203071D03*
X139431536Y-204203071D03*
X139431536Y-234203071D03*
X140680000Y-57820000D03*
X140760000Y-27820000D03*
X140760000Y-87820000D03*
X140760000Y-117820000D03*
X140760000Y-147820000D03*
X140760000Y-177820000D03*
X140760000Y-207820000D03*
X140760000Y-237820000D03*
X143797915Y-42408970D03*
X143877915Y-12408970D03*
X143877915Y-72408970D03*
X143877915Y-102408970D03*
X143877915Y-132408970D03*
X143877915Y-162408970D03*
X143877915Y-192408970D03*
X143877915Y-222408970D03*
X154150000Y-42100000D03*
X154230000Y-12100000D03*
X154230000Y-72100000D03*
X154230000Y-102100000D03*
X154230000Y-132100000D03*
X154230000Y-162100000D03*
X154230000Y-192100000D03*
X154230000Y-222100000D03*
X155300000Y-56900000D03*
X155380000Y-26900000D03*
X155380000Y-86900000D03*
X155380000Y-116900000D03*
X155380000Y-146900000D03*
X155380000Y-176900000D03*
X155380000Y-206900000D03*
X155380000Y-236900000D03*
X157480000Y-44500000D03*
X157560000Y-14500000D03*
X157560000Y-74500000D03*
X157560000Y-104500000D03*
X157560000Y-134500000D03*
X157560000Y-164500000D03*
X157560000Y-194500000D03*
X157560000Y-224500000D03*
X158450000Y-55350000D03*
X158530000Y-25350000D03*
X158530000Y-85350000D03*
X158530000Y-115350000D03*
X158530000Y-145350000D03*
X158530000Y-175350000D03*
X158530000Y-205350000D03*
X158530000Y-235350000D03*
D12*
%TO.C,C2105*%
X178530000Y-103850000D03*
X178530000Y-105850000D03*
%TO.C,C1505*%
X21470000Y-84150000D03*
X21470000Y-86150000D03*
%TO.C,C1305*%
X21470000Y-144150000D03*
X21470000Y-146150000D03*
%TO.C,C1405*%
X21470000Y-114150000D03*
X21470000Y-116150000D03*
%TO.C,C2405*%
X178530000Y-193850000D03*
X178530000Y-195850000D03*
%TO.C,C1805*%
X178530000Y-13850000D03*
X178530000Y-15850000D03*
%TO.C,C1105*%
X21470000Y-204150000D03*
X21470000Y-206150000D03*
%TO.C,C2205*%
X178530000Y-133850000D03*
X178530000Y-135850000D03*
%TO.C,C1605*%
X21470000Y-54150000D03*
X21470000Y-56150000D03*
%TO.C,C2005*%
X178530000Y-73850000D03*
X178530000Y-75850000D03*
%TO.C,C1005*%
X21470000Y-234150000D03*
X21470000Y-236150000D03*
%TO.C,C1705*%
X21470000Y-24150000D03*
X21470000Y-26150000D03*
%TO.C,C2305*%
X178530000Y-163850000D03*
X178530000Y-165850000D03*
%TO.C,C1205*%
X21470000Y-174150000D03*
X21470000Y-176150000D03*
%TO.C,C1905*%
X178450000Y-43850000D03*
X178450000Y-45850000D03*
%TO.C,C2505*%
X178530000Y-223850000D03*
X178530000Y-225850000D03*
D13*
%TO.C,C1201*%
X34570000Y-173700000D03*
X39570000Y-173700000D03*
%TO.C,C1701*%
X34570000Y-23699999D03*
X39570000Y-23699999D03*
%TO.C,C2101*%
X160430000Y-106300000D03*
X165430000Y-106300000D03*
%TO.C,C1603*%
X62110000Y-53609999D03*
X67110000Y-53609999D03*
%TO.C,C1001*%
X34570000Y-233700000D03*
X39570000Y-233700000D03*
%TO.C,C1103*%
X62110000Y-203610000D03*
X67110000Y-203610000D03*
%TO.C,C2501*%
X160430000Y-226300000D03*
X165430000Y-226300000D03*
%TO.C,C1801*%
X160430000Y-16300000D03*
X165430000Y-16300000D03*
%TO.C,C1301*%
X34570000Y-143700000D03*
X39570000Y-143700000D03*
%TO.C,C2401*%
X160430000Y-196300000D03*
X165430000Y-196300000D03*
%TO.C,C1403*%
X62110000Y-113610000D03*
X67110000Y-113610000D03*
%TO.C,C2403*%
X132890000Y-196390000D03*
X137890000Y-196390000D03*
%TO.C,C2103*%
X132890000Y-106390000D03*
X137890000Y-106390000D03*
%TO.C,C1703*%
X62110000Y-23609999D03*
X67110000Y-23609999D03*
%TO.C,C1901*%
X160350000Y-46300000D03*
X165350000Y-46300000D03*
%TO.C,C1303*%
X62110000Y-143610000D03*
X67110000Y-143610000D03*
%TO.C,C2203*%
X132890000Y-136390000D03*
X137890000Y-136390000D03*
%TO.C,C1101*%
X34570000Y-203700000D03*
X39570000Y-203700000D03*
%TO.C,C1803*%
X132890000Y-16390000D03*
X137890000Y-16390000D03*
%TO.C,C1503*%
X62110000Y-83609999D03*
X67110000Y-83609999D03*
%TO.C,C1203*%
X62110000Y-173610000D03*
X67110000Y-173610000D03*
%TO.C,C1903*%
X132810000Y-46390000D03*
X137810000Y-46390000D03*
%TO.C,C1601*%
X34570000Y-53700000D03*
X39570000Y-53700000D03*
%TO.C,C1003*%
X62110000Y-233610000D03*
X67110000Y-233610000D03*
%TO.C,C2303*%
X132890000Y-166390000D03*
X137890000Y-166390000D03*
%TO.C,C2503*%
X132890000Y-226390000D03*
X137890000Y-226390000D03*
%TO.C,C2003*%
X132890000Y-76390000D03*
X137890000Y-76390000D03*
%TO.C,C1501*%
X34570000Y-83699999D03*
X39570000Y-83699999D03*
%TO.C,C2201*%
X160430000Y-136300000D03*
X165430000Y-136300000D03*
%TO.C,C2301*%
X160430000Y-166300000D03*
X165430000Y-166300000D03*
%TO.C,C2001*%
X160430000Y-76300000D03*
X165430000Y-76300000D03*
%TO.C,C1401*%
X34570000Y-113700000D03*
X39570000Y-113700000D03*
D14*
%TO.C,R1503*%
X37980000Y-69639999D03*
X43060000Y-69639999D03*
%TO.C,J1101*%
X7500000Y-192260000D03*
X7500000Y-197340000D03*
X7500000Y-202420000D03*
X7500000Y-207500000D03*
%TO.C,J1701*%
X7500000Y-12260000D03*
X7500000Y-17340000D03*
X7500000Y-22420000D03*
X7500000Y-27500000D03*
%TO.C,J1201*%
X7500000Y-162260000D03*
X7500000Y-167340000D03*
X7500000Y-172420000D03*
X7500000Y-177500000D03*
%TO.C,J2501*%
X186500000Y-222500000D03*
X186500000Y-227580000D03*
X186500000Y-232660000D03*
X186500000Y-237740000D03*
%TO.C,J1601*%
X7500000Y-42260000D03*
X7500000Y-47340000D03*
X7500000Y-52420000D03*
X7500000Y-57500000D03*
%TO.C,J1302*%
X81160000Y-132179999D03*
X81160000Y-137259999D03*
X81160000Y-142339999D03*
X81160000Y-147419999D03*
%TO.C,R1604*%
X58300000Y-39639999D03*
X63380000Y-39639999D03*
%TO.C,R1104*%
X58300000Y-189640000D03*
X63380000Y-189640000D03*
%TO.C,R1102*%
X35440000Y-209960000D03*
X40520000Y-209960000D03*
%TO.C,J2102*%
X118840000Y-102580000D03*
X118840000Y-107660000D03*
X118840000Y-112740000D03*
X118840000Y-117820000D03*
%TO.C,R2001*%
X136620000Y-70040000D03*
X141700000Y-70040000D03*
%TO.C,R2504*%
X136620000Y-240360000D03*
X141700000Y-240360000D03*
%TO.C,J1402*%
X81160000Y-102179999D03*
X81160000Y-107259999D03*
X81160000Y-112339999D03*
X81160000Y-117419999D03*
%TO.C,J1002*%
X81160000Y-222180000D03*
X81160000Y-227260000D03*
X81160000Y-232340000D03*
X81160000Y-237420000D03*
%TO.C,J1901*%
X192420000Y-42500000D03*
X192420000Y-47580000D03*
X192420000Y-52660000D03*
X192420000Y-57740000D03*
%TO.C,R2303*%
X156940000Y-180360000D03*
X162020000Y-180360000D03*
%TO.C,R1801*%
X136620000Y-10040000D03*
X141700000Y-10040000D03*
%TO.C,R1301*%
X58300000Y-149960000D03*
X63380000Y-149960000D03*
%TO.C,R2101*%
X136620000Y-100040000D03*
X141700000Y-100040000D03*
%TO.C,R1703*%
X37980000Y-9639999D03*
X43060000Y-9639999D03*
%TO.C,R1203*%
X37980000Y-159640000D03*
X43060000Y-159640000D03*
%TO.C,R1001*%
X58300000Y-239960000D03*
X63380000Y-239960000D03*
%TO.C,R1304*%
X58300000Y-129640000D03*
X63380000Y-129640000D03*
%TO.C,R1004*%
X58300000Y-219640000D03*
X63380000Y-219640000D03*
%TO.C,R2403*%
X156940000Y-210360000D03*
X162020000Y-210360000D03*
%TO.C,J2001*%
X192500000Y-72500000D03*
X192500000Y-77580000D03*
X192500000Y-82660000D03*
X192500000Y-87740000D03*
%TO.C,J1102*%
X81160000Y-192180000D03*
X81160000Y-197260000D03*
X81160000Y-202340000D03*
X81160000Y-207420000D03*
%TO.C,J1802*%
X118840000Y-12580000D03*
X118840000Y-17660000D03*
X118840000Y-22740000D03*
X118840000Y-27820000D03*
%TO.C,R2304*%
X136620000Y-180360000D03*
X141700000Y-180360000D03*
%TO.C,R2202*%
X159480000Y-130040000D03*
X164560000Y-130040000D03*
%TO.C,R1804*%
X136620000Y-30360000D03*
X141700000Y-30360000D03*
%TO.C,R1502*%
X35440000Y-89959999D03*
X40520000Y-89959999D03*
%TO.C,R1404*%
X58300000Y-99640000D03*
X63380000Y-99640000D03*
%TO.C,J2401*%
X192500000Y-192500000D03*
X192500000Y-197580000D03*
X192500000Y-202660000D03*
X192500000Y-207740000D03*
%TO.C,J1202*%
X81160000Y-162180000D03*
X81160000Y-167260000D03*
X81160000Y-172340000D03*
X81160000Y-177420000D03*
%TO.C,R1603*%
X37980000Y-39640000D03*
X43060000Y-39640000D03*
%TO.C,R1403*%
X37980000Y-99640000D03*
X43060000Y-99640000D03*
%TO.C,J1602*%
X81160000Y-42179999D03*
X81160000Y-47259999D03*
X81160000Y-52339999D03*
X81160000Y-57419999D03*
%TO.C,R2003*%
X156940000Y-90360000D03*
X162020000Y-90360000D03*
%TO.C,R1601*%
X58300000Y-59959999D03*
X63380000Y-59959999D03*
%TO.C,R1401*%
X58300000Y-119960000D03*
X63380000Y-119960000D03*
%TO.C,J2301*%
X192500000Y-162500000D03*
X192500000Y-167580000D03*
X192500000Y-172660000D03*
X192500000Y-177740000D03*
%TO.C,R1701*%
X58300000Y-29959999D03*
X63380000Y-29959999D03*
%TO.C,R1303*%
X37980000Y-129640000D03*
X43060000Y-129640000D03*
%TO.C,R1201*%
X58300000Y-179960000D03*
X63380000Y-179960000D03*
%TO.C,J1502*%
X81160000Y-72179999D03*
X81160000Y-77259999D03*
X81160000Y-82339999D03*
X81160000Y-87419999D03*
%TO.C,R2302*%
X159480000Y-160040000D03*
X164560000Y-160040000D03*
%TO.C,R1902*%
X159400000Y-40040000D03*
X164480000Y-40040000D03*
%TO.C,J1902*%
X118760000Y-42580000D03*
X118760000Y-47660000D03*
X118760000Y-52740000D03*
X118760000Y-57820000D03*
%TO.C,R2102*%
X159480000Y-100040000D03*
X164560000Y-100040000D03*
%TO.C,J1501*%
X7500000Y-72260000D03*
X7500000Y-77340000D03*
X7500000Y-82420000D03*
X7500000Y-87500000D03*
%TO.C,J1702*%
X81160000Y-12179999D03*
X81160000Y-17259999D03*
X81160000Y-22339999D03*
X81160000Y-27419999D03*
%TO.C,R1903*%
X156860000Y-60360000D03*
X161940000Y-60360000D03*
%TO.C,J1401*%
X7500000Y-102260000D03*
X7500000Y-107340000D03*
X7500000Y-112420000D03*
X7500000Y-117500000D03*
%TO.C,J2201*%
X192500000Y-132500000D03*
X192500000Y-137580000D03*
X192500000Y-142660000D03*
X192500000Y-147740000D03*
%TO.C,R2502*%
X159480000Y-220040000D03*
X164560000Y-220040000D03*
%TO.C,R1101*%
X58300000Y-209960000D03*
X63380000Y-209960000D03*
%TO.C,R2402*%
X159480000Y-190040000D03*
X164560000Y-190040000D03*
%TO.C,J2101*%
X192500000Y-102500000D03*
X192500000Y-107580000D03*
X192500000Y-112660000D03*
X192500000Y-117740000D03*
%TO.C,R2104*%
X136620000Y-120360000D03*
X141700000Y-120360000D03*
%TO.C,R1602*%
X35440000Y-59959999D03*
X40520000Y-59959999D03*
%TO.C,R1402*%
X35440000Y-119960000D03*
X40520000Y-119960000D03*
%TO.C,J2202*%
X118840000Y-132580000D03*
X118840000Y-137660000D03*
X118840000Y-142740000D03*
X118840000Y-147820000D03*
%TO.C,R2501*%
X136620000Y-220040000D03*
X141700000Y-220040000D03*
%TO.C,R2203*%
X156940000Y-150360000D03*
X162020000Y-150360000D03*
%TO.C,R1901*%
X136540000Y-40040000D03*
X141620000Y-40040000D03*
%TO.C,R1501*%
X58300000Y-89959999D03*
X63380000Y-89959999D03*
%TO.C,J1801*%
X192500000Y-12500000D03*
X192500000Y-17580000D03*
X192500000Y-22660000D03*
X192500000Y-27740000D03*
%TO.C,R1103*%
X37980000Y-189640000D03*
X43060000Y-189640000D03*
%TO.C,J1001*%
X7500000Y-222260000D03*
X7500000Y-227340000D03*
X7500000Y-232420000D03*
X7500000Y-237500000D03*
%TO.C,R1904*%
X136540000Y-60360000D03*
X141620000Y-60360000D03*
%TO.C,R1504*%
X58300000Y-69639999D03*
X63380000Y-69639999D03*
%TO.C,R2004*%
X136620000Y-90360000D03*
X141700000Y-90360000D03*
%TO.C,R2002*%
X159480000Y-70040000D03*
X164560000Y-70040000D03*
%TO.C,R1702*%
X35440000Y-29959999D03*
X40520000Y-29959999D03*
%TO.C,R1202*%
X35440000Y-179960000D03*
X40520000Y-179960000D03*
%TO.C,R2301*%
X136620000Y-160040000D03*
X141700000Y-160040000D03*
%TO.C,R1803*%
X156940000Y-30360000D03*
X162020000Y-30360000D03*
%TO.C,J2402*%
X118840000Y-192580000D03*
X118840000Y-197660000D03*
X118840000Y-202740000D03*
X118840000Y-207820000D03*
%TO.C,R1003*%
X37980000Y-219640000D03*
X43060000Y-219640000D03*
%TO.C,R2204*%
X136620000Y-150360000D03*
X141700000Y-150360000D03*
%TO.C,J2302*%
X118840000Y-162580000D03*
X118840000Y-167660000D03*
X118840000Y-172740000D03*
X118840000Y-177820000D03*
%TO.C,R2404*%
X136620000Y-210360000D03*
X141700000Y-210360000D03*
%TO.C,R1802*%
X159480000Y-10040000D03*
X164560000Y-10040000D03*
%TO.C,R1302*%
X35440000Y-149960000D03*
X40520000Y-149960000D03*
%TO.C,R1704*%
X58300000Y-9639999D03*
X63380000Y-9639999D03*
%TO.C,R1204*%
X58300000Y-159640000D03*
X63380000Y-159640000D03*
%TO.C,R1002*%
X35440000Y-239960000D03*
X40520000Y-239960000D03*
%TO.C,R2503*%
X156940000Y-240360000D03*
X162020000Y-240360000D03*
%TO.C,J2502*%
X118840000Y-222580000D03*
X118840000Y-227660000D03*
X118840000Y-232740000D03*
X118840000Y-237820000D03*
%TO.C,R2401*%
X136620000Y-190040000D03*
X141700000Y-190040000D03*
%TO.C,R2201*%
X136620000Y-130040000D03*
X141700000Y-130040000D03*
%TO.C,R2103*%
X156940000Y-120360000D03*
X162020000Y-120360000D03*
%TO.C,J2002*%
X118840000Y-72580000D03*
X118840000Y-77660000D03*
X118840000Y-82740000D03*
X118840000Y-87820000D03*
%TO.C,J1301*%
X7500000Y-132260000D03*
X7500000Y-137340000D03*
X7500000Y-142420000D03*
X7500000Y-147500000D03*
M02*
